<svg xmlns="http://www.w3.org/2000/svg" viewBox="0 0 45 45" width="45"><circle cx="22.5" cy="22.5" r="22.5" fill="#ff9800"/><path d="M23.1 9.6c-4 0-7.2 3.2-7.2 7 0 3.9 3.2 7 7.2 7s7.2-3.2 7.2-7c-.1-3.9-3.3-7-7.2-7zm0 9.9c-1.6 0-3-1.3-3-2.9s1.3-2.9 3-2.9c1.6 0 3 1.3 3 2.9-.1 1.6-1.4 2.9-3 2.9zm2.5 9.8c2.9-.6 4.6-1.9 4.7-2 .8-.7 1-1.9.3-2.7s-1.9-1-2.7-.3c0 0-1.8 1.4-4.9 1.4-3 0-4.9-1.4-4.9-1.4-.8-.7-2.1-.5-2.7.3-.7.8-.5 2 .3 2.7.1.1 1.9 1.4 4.8 2l-4.1 4.2c-.7.8-.7 2 .1 2.7.4.4.9.5 1.4.5s1-.2 1.4-.6l3.8-4 4.2 4a2.13 2.13 0 0 0 2.8 0 1.82 1.82 0 0 0 0-2.7l-4.5-4.1z" fill="#f8f8f8"/></svg>
