<svg width="22" height="22" viewBox="0 0 22 22" fill="none" xmlns="http://www.w3.org/2000/svg">
<path d="M9.85398 1.39135C10.2639 1.07256 10.4688 0.913158 10.6951 0.851886C10.8948 0.797823 11.1052 0.797823 11.3049 0.851886C11.5312 0.913158 11.7361 1.07256 12.146 1.39135L20.0587 7.54566C20.5876 7.95706 20.8521 8.16275 21.0426 8.42035C21.2114 8.64854 21.3371 8.9056 21.4136 9.17891C21.5 9.48746 21.5 9.8225 21.5 10.4926V17.7667C21.5 19.0735 21.5 19.7269 21.2457 20.226C21.022 20.665 20.665 21.022 20.226 21.2457C19.7269 21.5 19.0735 21.5 17.7667 21.5H15.7833C15.1299 21.5 14.8032 21.5 14.5537 21.3728C14.3342 21.261 14.1557 21.0825 14.0438 20.863C13.9167 20.6134 13.9167 20.2867 13.9167 19.6333V15.2C13.9167 14.5466 13.9167 14.2199 13.7895 13.9703C13.6777 13.7508 13.4992 13.5723 13.2797 13.4605C13.0301 13.3333 12.7034 13.3333 12.05 13.3333H11H9.95C9.29661 13.3333 8.96991 13.3333 8.72034 13.4605C8.50082 13.5723 8.32235 13.7508 8.21049 13.9703C8.08333 14.2199 8.08333 14.5466 8.08333 15.2V19.6333C8.08333 20.2867 8.08333 20.6134 7.95617 20.863C7.84432 21.0825 7.66585 21.261 7.44632 21.3728C7.19676 21.5 6.87006 21.5 6.21667 21.5H4.23334C2.92655 21.5 2.27315 21.5 1.77402 21.2457C1.33498 21.022 0.978023 20.665 0.754318 20.226C0.5 19.7269 0.5 19.0735 0.5 17.7667V10.4926C0.5 9.8225 0.5 9.48746 0.586365 9.17891C0.662868 8.9056 0.788593 8.64854 0.957365 8.42035C1.14789 8.16275 1.41236 7.95706 1.94129 7.54567L9.85398 1.39135Z" fill="#3D76FE"/>
</svg>
