<svg width="33" height="36" viewBox="0 0 33 36" fill="none" xmlns="http://www.w3.org/2000/svg">
<g clip-path="url(#clip0_779_97819)">
<path d="M13.5416 18.3139H10.1903C10.1561 18.3139 10.139 18.3309 10.1219 18.3648C10.0364 19.8754 9.74575 21.4879 9.33538 22.8118C9.33538 22.8287 9.33538 22.8457 9.35248 22.8627C9.36958 22.8797 9.38668 22.8797 9.40378 22.8797H10.5494C10.5836 22.8797 10.6007 22.8627 10.6007 22.8457C10.9255 21.8273 11.182 20.5034 11.2846 19.3832H12.3789V22.8287C12.3789 22.8627 12.4131 22.8966 12.4473 22.8966H13.5416C13.5758 22.8966 13.61 22.8627 13.61 22.8287V18.3648C13.61 18.3309 13.5758 18.3139 13.5416 18.3139ZM27.7162 18.3139H26.6219C26.5877 18.3139 26.5535 18.3478 26.5535 18.3818V21.8273C26.3141 21.8952 26.0748 21.9292 25.8012 21.9292C25.0831 21.9292 24.9121 21.7085 24.9121 20.758V18.3818C24.9121 18.3478 24.8779 18.3139 24.8437 18.3139H23.7665C23.7323 18.3139 23.6981 18.3478 23.6981 18.3818V20.8768C23.6981 22.4384 24.2281 23.0324 25.5789 23.0324C26.3483 23.0324 27.2204 22.8287 27.7333 22.642C27.7504 22.6251 27.7675 22.6081 27.7675 22.5911V18.3818C27.7846 18.3309 27.7504 18.3139 27.7162 18.3139ZM4.53072 18.3139H3.41932C3.38512 18.3139 3.36803 18.3309 3.36803 18.3648C3.19704 19.0437 2.83797 20.1979 2.35922 21.403L1.24782 18.3648C1.23072 18.3478 1.21362 18.3309 1.19652 18.3309H0.0680254C0.050927 18.3309 0.0338285 18.3478 0.0167301 18.3648C-0.000368361 18.3818 -0.000368361 18.3988 0.0167301 18.4157L1.69238 22.9645C1.52139 23.321 1.36751 23.6095 1.21362 23.8811C1.09393 24.0848 0.991341 24.2884 0.888751 24.4921C0.871652 24.5091 0.871652 24.5261 0.888751 24.543C0.905849 24.56 0.922948 24.577 0.940046 24.577H2.15404C2.17113 24.577 2.20533 24.56 2.20533 24.543C2.41051 24.1526 2.66699 23.6095 2.90637 23.0494C3.6245 21.386 4.18875 19.8245 4.61621 18.3988C4.61621 18.3818 4.61621 18.3648 4.59911 18.3478C4.56492 18.3139 4.54782 18.3139 4.53072 18.3139ZM8.51466 21.8273C8.51466 21.8104 8.49756 21.7934 8.48046 21.7934H8.42916C8.15559 21.8952 7.65974 21.9631 7.31777 21.9631C6.54834 21.9631 6.18927 21.7594 6.18927 20.6053C6.18927 19.6717 6.30896 19.2474 7.31777 19.2474C7.60844 19.2474 7.86492 19.2814 8.20689 19.3832C8.24108 19.3832 8.25818 19.3832 8.27528 19.3493C8.39497 19.1116 8.54885 18.8231 8.71984 18.4666V18.4157C8.71984 18.3988 8.70274 18.3818 8.68564 18.3818C8.24108 18.246 7.71103 18.1611 7.23227 18.1611C5.64212 18.1611 4.92398 18.908 4.92398 20.5883C4.92398 22.2856 5.64212 23.0494 7.23227 23.0494C7.62554 23.0494 8.42916 22.9645 8.80533 22.8118C8.83953 22.7948 8.85663 22.7608 8.83953 22.7269L8.51466 21.8273ZM18.9276 18.3139H17.8162C17.782 18.3139 17.7649 18.3309 17.7649 18.3648C17.5939 19.0607 17.2349 20.1979 16.7561 21.403L15.6447 18.3648C15.6276 18.3478 15.6105 18.3309 15.5934 18.3309H14.4649C14.4478 18.3309 14.4307 18.3478 14.4136 18.3648C14.3965 18.3818 14.3965 18.3988 14.4136 18.4157L16.0893 22.9645C15.9183 23.321 15.7644 23.6095 15.6105 23.8811C15.4908 24.0848 15.3882 24.2884 15.2856 24.5091C15.2685 24.5261 15.2685 24.543 15.2856 24.56C15.3027 24.577 15.3198 24.5939 15.3369 24.5939H16.5509C16.568 24.5939 16.6022 24.577 16.6022 24.56C16.8074 24.1696 17.0639 23.6265 17.3033 23.0664C18.0043 21.403 18.5856 19.8415 19.0131 18.4157C19.0131 18.3988 19.0131 18.3818 18.996 18.3648C18.9618 18.3139 18.9447 18.3139 18.9276 18.3139ZM23.0312 18.3139H19.7996C19.7654 18.3139 19.7312 18.3478 19.7312 18.3818V22.8457C19.7312 22.8797 19.7654 22.9136 19.7996 22.9136H20.8939C20.9281 22.9136 20.9623 22.8797 20.9623 22.8457V19.4002H22.6551C22.6722 19.4002 22.7064 19.3832 22.7064 19.3662C22.8432 19.0607 22.9628 18.7382 23.0996 18.4157V18.3648C23.0654 18.3139 23.0483 18.3139 23.0312 18.3139Z" fill="#EF4058"/>
<path d="M5.83057 11.4568C4.25751 11.4568 3.64197 12.1357 3.64197 13.85C3.64197 15.5982 4.25751 16.2772 5.83057 16.2772C7.42072 16.2772 8.03627 15.5982 8.03627 13.85C8.03627 12.1187 7.42072 11.4568 5.83057 11.4568ZM5.83057 15.2758C5.11243 15.2758 4.89016 15.089 4.89016 13.867C4.89016 12.577 5.12953 12.4582 5.83057 12.4582C6.5487 12.4582 6.78808 12.577 6.78808 13.867C6.78808 15.089 6.5658 15.2758 5.83057 15.2758ZM12.4135 15.089C12.4135 15.0721 12.3964 15.0551 12.3793 15.0551H12.328C12.0544 15.1569 11.5585 15.2248 11.2166 15.2248C10.4471 15.2248 10.0881 15.0212 10.0881 13.867C10.0881 12.9335 10.2078 12.5091 11.2166 12.5091C11.5073 12.5091 11.7637 12.5431 12.1057 12.6449C12.1399 12.6449 12.157 12.6449 12.1741 12.611C12.2938 12.3733 12.4477 12.0848 12.6187 11.7284V11.6774C12.6187 11.6605 12.6016 11.6435 12.5845 11.6435C12.1399 11.5077 11.6098 11.4229 11.1311 11.4229C9.54093 11.4229 8.8228 12.1697 8.8228 13.85C8.8228 15.5473 9.54093 16.3111 11.1311 16.3111C11.5244 16.3111 12.328 16.2262 12.7041 16.0735C12.7383 16.0565 12.7554 16.0226 12.7383 15.9886L12.4135 15.089ZM3.3 11.5756H0.0683938C0.0341969 11.5756 0 11.6096 0 11.6435V16.1074C0 16.1414 0.0341969 16.1753 0.0683938 16.1753H1.16269C1.19689 16.1753 1.23109 16.1414 1.23109 16.1074V12.6449H2.90674C2.92383 12.6449 2.95803 12.6279 2.95803 12.611C3.09482 12.3055 3.21451 11.983 3.3513 11.6605V11.6096C3.3342 11.5926 3.3171 11.5756 3.3 11.5756Z" fill="#1466AC"/>
<path d="M32.8302 22.4215V22.3536C32.8302 22.3197 32.8302 22.2687 32.8473 22.2348C32.8986 21.6068 32.9328 20.843 32.967 19.9604V19.8925C32.9841 19.2984 33.0012 18.6535 33.0012 17.9915C33.0012 17.3296 32.9841 16.6846 32.967 16.0905V16.0226C32.9328 15.157 32.8986 14.3762 32.8473 13.7482C32.8473 13.7143 32.8473 13.6634 32.8302 13.6294V13.5615C32.8302 13.4936 32.8131 13.4427 32.8131 13.3748V13.3069C32.7618 12.645 32.7276 12.2376 32.7105 12.2037C32.7105 12.1358 32.6934 12.0679 32.6934 12.017V11.9661C32.6763 11.8472 32.6592 11.7454 32.625 11.6266C32.625 11.6096 32.625 11.5926 32.6079 11.5757C32.3173 10.2008 31.5478 8.69024 30.5903 7.55304C30.2141 7.11174 29.8209 6.72136 29.4105 6.41584C29.3763 6.38189 28.8976 6.04243 28.1452 5.51627C27.2732 4.92221 26.025 4.09052 24.6059 3.27581C22.0753 1.79915 19.8354 0.763791 19.5276 0.644979C19.5105 0.644979 19.5105 0.628006 19.5105 0.628006C18.8437 0.339462 18.0401 0.135785 17.168 0.0509194C16.997 0.0339462 16.8261 0.0169731 16.6551 0.0169731C16.4841 0 16.3302 0 16.1763 0H15.9369C14.7742 0.0339462 13.697 0.237624 12.8421 0.628006C12.7224 0.678925 10.4483 1.71429 7.86648 3.22489L7.76389 3.27581C5.11363 4.82037 3.04472 6.34795 2.95922 6.41584C2.30948 6.89109 1.72814 7.50212 1.19808 8.28288C1.07839 8.45262 1.07839 8.89392 1.59135 8.89392H2.90793C3.47218 8.89392 3.60896 8.55445 4.24161 8.09618C4.94264 7.58699 6.32762 6.5686 8.85819 5.07496C10.6877 4.00566 12.3976 3.157 13.2354 2.76662C13.2525 2.76662 13.2696 2.74965 13.2867 2.74965C13.2867 2.74965 13.3038 2.74965 13.3038 2.73267C13.3038 2.73267 13.3209 2.73267 13.3209 2.7157C13.338 2.7157 13.3551 2.69873 13.3551 2.69873C13.3722 2.69873 13.3893 2.68175 13.4064 2.68175C13.6116 2.57992 13.7483 2.529 13.7483 2.529C14.3297 2.2744 15.1504 2.10467 16.0224 2.08769H16.3644C16.6209 2.08769 16.8774 2.10467 17.1167 2.13861C17.6468 2.20651 18.1255 2.30835 18.5188 2.47808C18.553 2.49505 18.6043 2.51202 18.6385 2.529C18.6385 2.529 18.6556 2.54597 18.7069 2.56294C19.1002 2.73267 21.2204 3.73409 23.5287 5.07496C24.8965 5.8727 26.1105 6.67044 26.9483 7.24752C27.6836 7.75672 28.1281 8.07921 28.1452 8.09618C28.4701 8.3338 28.795 8.67327 29.1027 9.04667C29.8722 10.0311 30.5048 11.372 30.6074 12.4074C30.6074 12.4243 30.6587 12.8317 30.71 13.5276C30.71 13.5785 30.71 13.6124 30.7271 13.6634V13.7652C30.7271 13.8331 30.7442 13.884 30.7442 13.9519V14.0198C30.7442 14.0537 30.7442 14.1047 30.7613 14.1386C30.7613 14.2235 30.7784 14.3083 30.7784 14.3932C30.7784 14.4441 30.7784 14.495 30.7955 14.546V14.5799C30.7955 14.6478 30.7955 14.6987 30.8126 14.7666V14.9024C30.8639 15.785 30.8981 16.8373 30.8981 17.9406C30.8981 19.0438 30.8639 20.0962 30.8126 20.9788V21.1146C30.8126 21.1825 30.8126 21.2334 30.7955 21.3013V21.3352C30.7955 21.3861 30.7955 21.4371 30.7784 21.488C30.7784 21.5728 30.7613 21.6577 30.7613 21.7426C30.7613 21.7935 30.7613 21.8274 30.7442 21.8614V21.9293C30.7442 21.9972 30.7271 22.0481 30.7271 22.116V22.2178C30.7271 22.2687 30.7271 22.3197 30.71 22.3536C30.6587 23.0495 30.6074 23.4738 30.6074 23.4738C30.5048 24.5092 29.8722 25.8501 29.1027 26.8345C28.795 27.2249 28.4701 27.5474 28.1452 27.785C28.1281 27.785 27.6836 28.1245 26.9483 28.6337C26.1105 29.2107 24.8794 30.0085 23.5287 30.8062C21.2204 32.1641 19.0831 33.1485 18.7069 33.3182L18.6385 33.3522C18.6043 33.3692 18.553 33.3861 18.5188 33.4031C18.1255 33.5559 17.6468 33.6747 17.1167 33.7426C16.8774 33.7765 16.6209 33.7935 16.3644 33.7935H16.0224C15.1504 33.7765 14.3297 33.6238 13.7483 33.3522C13.7483 33.3522 13.6287 33.3013 13.4064 33.1994C13.3893 33.1825 13.3551 33.1825 13.338 33.1655C13.3209 33.1485 13.3038 33.1485 13.2867 33.1315C13.2696 33.1315 13.2696 33.1146 13.2525 33.1146C13.2354 33.1146 13.2183 33.0976 13.2012 33.0976C13.1841 33.0806 13.167 33.0806 13.1328 33.0636H13.1157C12.2437 32.7242 10.6022 31.9095 8.85819 30.8911C6.31052 29.4144 4.94264 28.3791 4.24161 27.8699C3.60896 27.4116 3.47218 27.0721 2.90793 27.0721H1.59135C1.07839 27.0721 1.07839 27.5134 1.19808 27.6832C1.72814 28.4639 2.30948 29.075 2.95922 29.5502C3.04472 29.6181 5.13073 31.1457 7.76389 32.6902C7.90067 32.7751 8.03746 32.86 8.19135 32.9279C10.6364 34.3197 12.7395 35.2702 12.8592 35.338C13.697 35.7115 14.7913 35.9321 15.954 35.966H16.1934C16.3473 35.966 16.5012 35.9661 16.6551 35.9491C16.8261 35.9491 16.997 35.9321 17.168 35.9151C18.0401 35.8303 18.8608 35.6266 19.5105 35.338C19.5105 35.338 19.5276 35.338 19.5276 35.3211C19.8183 35.1853 22.0753 34.1499 24.5888 32.6902C26.0079 31.8586 27.2561 31.0438 28.1281 30.4498C28.8805 29.9236 29.3592 29.5842 29.3934 29.5502C29.8038 29.2447 30.197 28.8543 30.5732 28.413C31.5307 27.2758 32.3002 25.7652 32.5908 24.3904C32.5908 24.3734 32.5908 24.3564 32.6079 24.3395C32.625 24.2206 32.6592 24.1018 32.6763 24V23.9491C32.6934 23.8812 32.6934 23.8133 32.6934 23.7624C32.6934 23.7284 32.7447 23.3211 32.796 22.6591V22.5912C32.8302 22.5403 32.8302 22.4894 32.8302 22.4215Z" fill="url(#paint0_linear_779_97819)"/>
</g>
<defs>
<linearGradient id="paint0_linear_779_97819" x1="17.0665" y1="0" x2="17.0665" y2="35.9971" gradientUnits="userSpaceOnUse">
<stop offset="0.398" stop-color="#1466AC"/>
<stop offset="0.659" stop-color="#EF4058"/>
</linearGradient>
<clipPath id="clip0_779_97819">
<rect width="33" height="36" fill="white"/>
</clipPath>
</defs>
</svg>
