<svg width="13" height="15" viewBox="0 0 13 15" fill="none" xmlns="http://www.w3.org/2000/svg">
<path d="M8.21856 2.21803L8.84918 1.44165C8.94888 1.31897 8.96495 1.14819 8.88992 1.00897C8.81488 0.869767 8.66357 0.789414 8.50615 0.805143C8.32393 0.830834 8.14862 0.725016 8.0865 0.551745L7.98397 0.24165C7.95567 0.156204 7.89026 0.0881847 7.80606 0.0564973C7.72186 0.0249228 7.62781 0.0330702 7.55028 0.0787926L6.70217 0.578804C6.58129 0.650103 6.43134 0.651122 6.30944 0.581633L5.58275 0.167294C5.54076 0.143414 5.48961 0.142056 5.44649 0.163786C5.40337 0.185515 5.37394 0.22739 5.36817 0.275377L5.31475 0.719934C5.3014 0.830732 5.20938 0.915387 5.09779 0.919348L4.78645 0.930439C4.70338 0.933495 4.62869 0.981593 4.59168 1.05606C4.55456 1.13042 4.56123 1.21903 4.60899 1.28717L5.26178 2.21803L8.21856 2.21803Z" fill="black"/>
<path d="M3.47432 9.19807C4.9337 10.5351 9.45197 10.4032 10.2374 8.80627C11.5645 6.10796 9.13941 3.77806 8.21871 2.98218H5.26205C3.74032 4.1532 1.63872 7.51641 3.47446 9.19827L3.47432 9.19807Z" fill="black"/>
<path d="M12.5415 11.8374C12.6973 11.7418 12.8467 11.6361 12.9886 11.5211C13.0399 11.4587 12.9086 11.2268 12.7795 11.1647C12.5036 11.0322 12.2133 11.1244 11.8898 11.2318C11.358 11.4113 10.0928 12.431 9.24889 12.6186H9.24901C8.45996 12.7634 7.65516 12.8025 6.8558 12.7352C6.52409 12.6908 5.76979 12.4863 5.71999 12.4708C5.79796 12.4604 7.04175 12.2821 7.47883 12.1285H7.47872C7.86927 12.002 8.23801 11.8159 8.57177 11.5769C8.76869 11.4326 8.90293 11.2324 8.76439 11.001C8.59893 10.724 8.30943 10.7051 7.85685 10.8425H7.85697C7.42339 10.9403 6.98405 11.0106 6.54155 11.053C6.00396 11.1302 5.45803 11.1272 4.92133 11.0441C4.26041 10.9275 3.58439 10.925 2.92268 11.0367C2.32309 11.1776 2.02406 11.3635 1.48355 11.7139V11.714C1.37931 11.7817 1.26976 11.8406 1.15581 11.89C0.929348 11.9846 0.735706 12.1435 0.598665 12.3471C0.461624 12.5507 0.387254 12.79 0.384766 13.0354C0.385445 13.3817 0.531214 13.7119 0.786646 13.946C1.04197 14.1799 1.38374 14.2962 1.72884 14.2667C2.10751 14.223 2.49015 14.2254 2.86828 14.2737C4.15779 14.5145 6.24331 14.6905 6.69644 14.6262C7.79989 14.4351 8.87698 14.1151 9.90575 13.6731C10.4311 13.3921 10.9371 13.0762 11.4202 12.7276C11.565 12.6251 12.5404 11.9946 12.5413 11.8374L12.5415 11.8374Z" fill="black"/>
</svg>
