<svg width="13" height="13" viewBox="0 0 13 13" fill="none" xmlns="http://www.w3.org/2000/svg">
<path fill-rule="evenodd" clip-rule="evenodd" d="M3.2 3.2V2.4C3.2 1.07452 4.27452 0 5.6 0H7.2C8.52548 0 9.6 1.07452 9.6 2.4V3.2H11.2C12.0837 3.2 12.8 3.91634 12.8 4.8V7.65661C10.8077 8.39578 8.65191 8.79996 6.40002 8.79996C4.14812 8.79996 1.99229 8.39578 0 7.6566V4.8C0 3.91634 0.716344 3.2 1.6 3.2H3.2ZM4.8 2.4C4.8 1.95817 5.15817 1.6 5.6 1.6H7.2C7.64183 1.6 8 1.95817 8 2.4V3.2H4.8V2.4ZM5.6 6.4C5.6 5.95817 5.95817 5.6 6.4 5.6H6.408C6.84983 5.6 7.208 5.95817 7.208 6.4C7.208 6.84183 6.84983 7.2 6.408 7.2H6.4C5.95817 7.2 5.6 6.84183 5.6 6.4Z" fill="#1A1A1A"/>
<path d="M0 9.35381V11.2C0 12.0837 0.716344 12.8 1.6 12.8H11.2C12.0837 12.8 12.8 12.0837 12.8 11.2V9.35382C10.7898 10.0324 8.63712 10.4 6.40002 10.4C4.1629 10.4 2.01024 10.0324 0 9.35381Z" fill="#1A1A1A"/>
</svg>
